<svg xmlns="http://www.w3.org/2000/svg" width="25.6" height="23.896" viewBox="0 0 25.6 23.896">
  <path id="home_outline" data-name="home/outline" d="M16.214,23.9a.854.854,0,0,1-.844-.727l-.009-.126V15.79a.427.427,0,0,0-.329-.416l-.1-.011H10.667a.427.427,0,0,0-.416.329l-.011.1v7.253a.854.854,0,0,1-.727.844l-.126.009H4.267a1.707,1.707,0,0,1-1.7-1.532L2.56,22.19V11.5L1.444,12.566a.853.853,0,0,1-1.1.066l-.1-.092a.853.853,0,0,1-.066-1.1l.093-.1L11.6.481A1.758,1.758,0,0,1,13.848.339l.122.113,3.1,2.964V1.709a.852.852,0,0,1,.727-.843l.126-.01h2.56a.852.852,0,0,1,.843.727l.01.126V7.5l4,3.832a.854.854,0,0,1-1.073,1.321l-.107-.088L23.04,11.5V22.19a1.706,1.706,0,0,1-1.532,1.7l-.175.009Zm-1.28-10.239A2.133,2.133,0,0,1,17.058,15.6l.009.194v6.4h4.267V9.863L12.8,1.7l-.007.009,0-.005L4.267,9.863V22.19H8.533v-6.4a2.134,2.134,0,0,1,1.94-2.125l.194-.008Zm4.693-7.79v-3.3h-.853V5.05Z" transform="translate(0 0)" fill="#069dbe"/>
</svg>
