<?xml version="1.0" encoding="UTF-8"?>
<svg width="51px" height="48px" viewBox="0 0 51 48" version="1.1" xmlns="http://www.w3.org/2000/svg" xmlns:xlink="http://www.w3.org/1999/xlink">
    <title>icon/bathroom</title>
    <defs>
        <filter id="filter-1">
            <feColorMatrix in="SourceGraphic" type="matrix" values="0 0 0 0 0.023529 0 0 0 0 0.615686 0 0 0 0 0.745098 0 0 0 1.000000 0"></feColorMatrix>
        </filter>
    </defs>
    <g id="Styleguide" stroke="none" stroke-width="1" fill="none" fill-rule="evenodd">
        <g id="icon/bathroom" transform="translate(-312.000000, -215.000000)" filter="url(#filter-1)">
            <g transform="translate(312.000000, 215.000000)">
                <path d="M51,21.2183683 C51,17.4555231 47.937709,14.394384 44.1736699,14.394384 L36.9173262,14.3944835 L20.4344648,21.2833909 L20.4344648,14.9700279 L14.3992324,14.9700279 L14.3992324,9.64644185 L26.3138086,9.64644185 C29.9038301,9.64644185 32.8245762,6.72669942 32.8245762,3.13791158 L32.8245762,2.83009587e-15 L3.69560742,2.83009587e-15 L3.69560742,14.9701275 L0,14.9701275 L0,39.3061936 L39.856998,39.3061936 C39.3548672,40.3215613 38.9809336,41.3697889 38.9809336,42.2707448 C38.9809336,45.4298659 41.5519512,48 44.7121582,48 C47.8723652,48 50.4433828,45.4298659 50.4433828,42.2707448 C50.4433828,40.5586498 49.0936758,38.3144251 48.078457,36.7753917 C46.9926152,35.1292153 44.7034922,32.3306559 44.7034922,32.3306559 L51,32.3306559 L51,21.2183683 Z M37.517373,17.3837294 L44.1736699,17.3837294 C46.2887754,17.3837294 48.0095273,19.1038901 48.0095273,21.2183683 L48.0095273,23.3624203 L39.2137207,23.3624203 L20.4344648,31.8714153 L20.4344648,24.5234665 L37.517373,17.3837294 Z M29.8342031,2.98934546 L29.8342031,3.13791158 C29.8342031,5.07843202 28.2549961,6.65709639 26.3138086,6.65709639 L6.68598047,6.65709639 L6.68598047,2.98934546 L29.8342031,2.98934546 Z M6.68598047,9.64654142 L11.4088594,9.64654142 L11.4088594,14.9701275 L6.68598047,14.9701275 L6.68598047,9.64654142 Z M17.4440918,36.3167485 L2.99037305,36.3167485 L2.99037305,17.9594729 L17.4440918,17.9594729 L17.4440918,36.3167485 Z M47.4530098,42.2707448 C47.4530098,43.7814989 46.2235313,45.0106545 44.7122578,45.0106545 C43.2009844,45.0106545 41.9714063,43.7814989 41.9714063,42.2707448 C41.9714063,41.4127058 43.2441152,39.198752 44.7122578,37.1516861 C46.1804004,39.1988516 47.4530098,41.4128054 47.4530098,42.2707448 Z M41.6533535,36.3167485 L20.4345645,36.3167485 L20.4345645,35.1536113 L38.0416172,27.1757501 L38.0416172,32.3306559 L44.7034922,32.3306559 C44.7034922,32.3306559 42.6256406,34.8883431 41.6533535,36.3167485 L41.6533535,36.3167485 Z M41.0319902,29.3412108 L41.0319902,26.3518654 L48.0095273,26.3518654 L48.0095273,29.3412108 L41.0319902,29.3412108 Z" id="Shape" fill="#000000" fill-rule="nonzero"></path>
            </g>
        </g>
    </g>
</svg>