<svg xmlns="http://www.w3.org/2000/svg" width="12.308" height="18.492" viewBox="0 0 12.308 18.492">
  <path id="bulb_outline" data-name="bulb/outline" d="M4.923,18.492a.615.615,0,0,1-.091-1.224l.091-.006H7.385a.615.615,0,0,1,.091,1.224l-.091.006Zm-.616-1.846a.615.615,0,0,1-.091-1.224l.091-.007H8a.615.615,0,0,1,.091,1.224L8,16.646Zm3.084-2.4-.007-.091v-.923A3.694,3.694,0,0,1,8.7,10.71l.3-.3.571-.545a4.956,4.956,0,0,0,1.5-3.709,4.923,4.923,0,1,0-9.846,0,5.089,5.089,0,0,0,1.5,3.706l.327.307.362.348a4.164,4.164,0,0,1,1.5,2.531l.007.185v.923a.615.615,0,0,1-1.224.091l-.006-.091v-.923a2.731,2.731,0,0,0-.972-1.67l-.272-.273-.563-.533A6.312,6.312,0,0,1,0,6.156a6.154,6.154,0,1,1,12.307,0,6.207,6.207,0,0,1-1.681,4.4l-.238.237-.523.5-.1.1a3.38,3.38,0,0,0-1.141,1.728l-.006.115v.923a.615.615,0,0,1-1.224.091Zm-1.815,0-.007-.091v-4.4a3.75,3.75,0,0,1-.675-.288,4.682,4.682,0,0,1-.569-.356.615.615,0,1,1,.734-.987l.129.089c.079.051.177.111.288.17a2.419,2.419,0,0,0,.471.2.628.628,0,0,0,.414,0,2.436,2.436,0,0,0,.47-.2,3.7,3.7,0,0,0,.418-.259.615.615,0,0,1,.734.987,4.755,4.755,0,0,1-.569.356,3.84,3.84,0,0,1-.614.268v4.421a.615.615,0,0,1-1.224.091Z" transform="translate(0 0)" fill="#fff"/>
</svg>
