<?xml version="1.0" encoding="UTF-8"?>
<svg width="51px" height="51px" viewBox="0 0 51 51" version="1.1" xmlns="http://www.w3.org/2000/svg" xmlns:xlink="http://www.w3.org/1999/xlink">
    <title>icon/default</title>
    <defs>
        <filter id="filter-1">
            <feColorMatrix in="SourceGraphic" type="matrix" values="0 0 0 0 0.023529 0 0 0 0 0.615686 0 0 0 0 0.745098 0 0 0 1.000000 0"></feColorMatrix>
        </filter>
    </defs>
    <g id="Styleguide" stroke="none" stroke-width="1" fill="none" fill-rule="evenodd">
        <g id="icon/default" transform="translate(-70.000000, -213.000000)" filter="url(#filter-1)">
            <g transform="translate(70.000000, 213.000000)">
                <path d="M31.0668691,22.8378398 L29.9386934,19.3743223 L39.0818379,19.3743223 L39.0818379,0 L11.9181621,0 L11.9181621,19.3742227 L21.0613066,19.3742227 L19.9331309,22.8377402 L0,22.8377402 L0,51 L2.98977539,51 L2.98977539,25.8276152 L31.2205664,25.8276152 L31.2205664,51 L51,51 L51,22.8378398 L31.0668691,22.8378398 Z M39.6414434,25.8276152 L39.6414434,28.488082 L42.6297246,28.488082 L42.6297246,25.8276152 L48.0102246,25.8276152 L48.0102246,31.4675977 L34.2103418,31.4675977 L34.2103418,25.8276152 L39.6414434,25.8276152 Z M34.2103418,39.7225254 L34.2103418,34.4559785 L39.6413438,34.4559785 L39.6413438,36.9623496 L42.629625,36.9623496 L42.629625,34.4559785 L48.010125,34.4559785 L48.010125,39.7225254 L34.2103418,39.7225254 Z M14.9064434,2.98828125 L36.093457,2.98828125 L36.093457,16.3859414 L14.9064434,16.3859414 L14.9064434,2.98828125 Z M24.2042813,19.3742227 L26.7957188,19.3742227 L27.9238945,22.8377402 L23.0760059,22.8377402 L24.2042813,19.3742227 Z M34.2103418,48.010125 L34.2103418,42.710707 L39.6413438,42.710707 L39.6413438,45.2170781 L42.629625,45.2170781 L42.629625,42.710707 L48.010125,42.710707 L48.010125,48.010125 L34.2103418,48.010125 Z" id="Shape" fill="#000000" fill-rule="nonzero"></path>
            </g>
        </g>
    </g>
</svg>