<svg id="Layer_1" data-name="Layer 1" xmlns="http://www.w3.org/2000/svg" viewBox="0 0 34 49"><defs><style>.cls-1{fill:#069dbe;}</style></defs><g id="Styleguide"><g id="faq_5" data-name="faq/5"><path id="Shape" class="cls-1" d="M14.92,36.41a.82.82,0,0,0,.82-.82.82.82,0,1,0-.82.82Zm3.86,0a.82.82,0,0,0,.81-.82.81.81,0,0,0-1.62,0,.82.82,0,0,0,.81.82ZM32.23,21.55a8.45,8.45,0,0,0-.71-9.45.74.74,0,0,0-.45-.27,8.5,8.5,0,0,0-3.48.21,11.71,11.71,0,0,0,.06-1.19A10.84,10.84,0,0,0,16.85,0,10.7,10.7,0,0,0,9.22,3.18a.71.71,0,0,0,1,1,9.26,9.26,0,0,1,6.62-2.75A9.4,9.4,0,1,1,8.72,6.17a.71.71,0,0,0-.26-1,.7.7,0,0,0-1,.26,10.86,10.86,0,0,0-1.44,5.4A11.7,11.7,0,0,0,6.12,12a8.5,8.5,0,0,0-3.48-.21.69.69,0,0,0-.45.27,8.42,8.42,0,0,0-.72,9.45,8.66,8.66,0,0,0,1.63,2A15.13,15.13,0,0,0,6.51,40.49v6.08A2.43,2.43,0,0,0,8.93,49h2.86a2.42,2.42,0,0,0,2.42-2.43V44.42a15.1,15.1,0,0,0,5.28,0v2.15A2.43,2.43,0,0,0,21.91,49h2.86a2.42,2.42,0,0,0,2.42-2.43V40.49a15,15,0,0,0,3.48-5.05.72.72,0,0,0-1.32-.56,13.5,13.5,0,0,1-3.24,4.67,1.1,1.1,0,0,0-.35.8v6.22a1,1,0,0,1-1,1H21.91a1,1,0,0,1-1-1V43.9a1,1,0,0,0-.37-.79,1,1,0,0,0-.84-.2,13.45,13.45,0,0,1-5.72,0,1,1,0,0,0-.83.2,1,1,0,0,0-.37.79v2.67a1,1,0,0,1-1,1H8.93a1,1,0,0,1-1-1V40.35a1.1,1.1,0,0,0-.35-.8A13.71,13.71,0,0,1,4.45,24.06a1.27,1.27,0,0,0-.32-1.48,7.08,7.08,0,0,1-1.42-1.75,7,7,0,0,1,.42-7.61,6.84,6.84,0,0,1,3.29.43,10.79,10.79,0,0,0,20.87,0,6.8,6.8,0,0,1,3.28-.43A6.93,6.93,0,0,1,31,20.83a6.66,6.66,0,0,1-1.42,1.75,1.29,1.29,0,0,0-.32,1.48,13.64,13.64,0,0,1,1.16,5.53,13.39,13.39,0,0,1-.29,2.83.72.72,0,0,0,.55.85l.15,0a.72.72,0,0,0,.7-.57,15.61,15.61,0,0,0,.32-3.13,14.91,14.91,0,0,0-1.24-6,8.41,8.41,0,0,0,1.63-2ZM21.72,27a.71.71,0,0,0,.71-.72V24.89a.71.71,0,1,0-1.42,0v1.35A.71.71,0,0,0,21.72,27Zm-9,11.89a7.26,7.26,0,0,0,4.18,1.24A7.24,7.24,0,0,0,21,38.85a3.79,3.79,0,0,0,0-6.52,7.24,7.24,0,0,0-4.18-1.24,7.26,7.26,0,0,0-4.18,1.24,3.79,3.79,0,0,0,0,6.52Zm4.18-6.32c2.5,0,4.62,1.4,4.62,3.06s-2.12,3.06-4.62,3.06-4.61-1.4-4.61-3.06S14.35,32.53,16.85,32.53ZM20.13,5.24A1.45,1.45,0,0,0,20,3.9a1.48,1.48,0,0,0-2.31-.17L12.07,9.05a1.53,1.53,0,0,0-.49,1.27,1.49,1.49,0,0,0,.74,1.13C13.21,12,14.11,12.5,15,13c-.44,1.06-1,2.32-1.42,3.45A1.48,1.48,0,0,0,16.05,18l5.59-5.32a1.5,1.5,0,0,0,.48-1.28,1.53,1.53,0,0,0-.78-1.15L18.71,8.69C19.19,7.57,19.68,6.41,20.13,5.24ZM17.19,8.62a.81.81,0,0,0,.36,1.05l3.07,1.79c.11.06.11.07,0,.15-2,1.87-5.52,5.31-5.7,5.41,0,0,0,0,0,0,.49-1.29,1.11-2.71,1.61-3.9A.82.82,0,0,0,16.16,12c-1-.6-2.08-1.18-3.1-1.81-.08,0-.08-.06,0-.13l2.09-2c1.15-1.1,2.34-2.22,3.5-3.34a.39.39,0,0,1,.11-.08l.05,0C18.29,6,17.73,7.34,17.19,8.62ZM12.7,26.24V24.89a.72.72,0,1,0-1.43,0v1.35a.72.72,0,1,0,1.43,0Z"/></g></g></svg>