<svg id="Layer_1" data-name="Layer 1" xmlns="http://www.w3.org/2000/svg" viewBox="0 0 50 49"><defs><style>.cls-1{fill:#069dbe;}</style></defs><g id="Styleguide"><g id="faq_4" data-name="faq/4"><path id="Shape" class="cls-1" d="M13.05,20.92a1.28,1.28,0,0,0-.15-1.2,1.35,1.35,0,0,0-1.13-.59h0a1.43,1.43,0,0,0-.92.43L8,22.23,6.33,23.82A1.33,1.33,0,0,0,6.55,26L8.38,27l.22.12L8,28.58l-.12.3c-.12.3-.26.61-.38.92a1.33,1.33,0,0,0,.66,1.66,1.36,1.36,0,0,0,.58.13,1.41,1.41,0,0,0,1-.43l.82-.78,3.67-3.47a1.36,1.36,0,0,0,.44-1.15,1.37,1.37,0,0,0-.71-1l-1.45-.84L12,23.57l0-.07C12.34,22.66,12.71,21.79,13.05,20.92Zm.12,5-3.6,3.41L9,29.85l.18-.42.12-.3.81-1.93a.8.8,0,0,0-.35-1l-.69-.4c-.57-.32-1.15-.65-1.71-1L9,23.27c.85-.8,1.69-1.59,2.53-2.4-.27.7-.57,1.39-.86,2.07l-.24.58a.78.78,0,0,0,.34,1l1,.59c.46.27.92.54,1.39.8ZM48.63,38.76a8.66,8.66,0,0,0-4.27,1,8,8,0,0,1-7.3,0,8.67,8.67,0,0,0-4.28-1,8.67,8.67,0,0,0-4.28,1,7.26,7.26,0,0,1-3.65.88,7.26,7.26,0,0,1-3.65-.88,8.67,8.67,0,0,0-4.28-1,8.66,8.66,0,0,0-4.27,1A7.26,7.26,0,0,1,9,40.67a7.26,7.26,0,0,1-3.65-.88,8.67,8.67,0,0,0-4.28-1,.72.72,0,0,0,0,1.44,7.26,7.26,0,0,1,3.65.88,8.67,8.67,0,0,0,4.28,1,8.66,8.66,0,0,0,4.27-1,7.32,7.32,0,0,1,3.65-.88,7.33,7.33,0,0,1,3.66.88,8.62,8.62,0,0,0,4.27,1,8.67,8.67,0,0,0,4.28-1,7.26,7.26,0,0,1,3.65-.88,7.26,7.26,0,0,1,3.65.88,9.39,9.39,0,0,0,8.55,0,7.32,7.32,0,0,1,3.65-.88.72.72,0,1,0,0-1.44Zm0,6.89a8.66,8.66,0,0,0-4.27,1,8,8,0,0,1-7.3,0,8.67,8.67,0,0,0-4.28-1,8.67,8.67,0,0,0-4.28,1,7.26,7.26,0,0,1-3.65.88,7.26,7.26,0,0,1-3.65-.88,8.67,8.67,0,0,0-4.28-1,8.66,8.66,0,0,0-4.27,1A7.26,7.26,0,0,1,9,47.56a7.26,7.26,0,0,1-3.65-.88,8.67,8.67,0,0,0-4.28-1,.72.72,0,0,0,0,1.44A7.26,7.26,0,0,1,4.72,48,8.67,8.67,0,0,0,9,49a8.66,8.66,0,0,0,4.27-1,7.32,7.32,0,0,1,3.65-.88,7.33,7.33,0,0,1,3.66.88,8.62,8.62,0,0,0,4.27,1,8.67,8.67,0,0,0,4.28-1,7.26,7.26,0,0,1,3.65-.88,7.26,7.26,0,0,1,3.65.88A9.39,9.39,0,0,0,45,48a7.32,7.32,0,0,1,3.65-.88.72.72,0,0,0,0-1.44ZM29.2,17.14a1.46,1.46,0,0,0,.46-1.21,1.48,1.48,0,0,0-.75-1.09l-2.29-1.32c.42-1,.85-2,1.25-3a1.4,1.4,0,0,0-2.35-1.44l-5,4.75a1.41,1.41,0,0,0,.23,2.27c.78.47,1.57.91,2.35,1.36-.44,1.06-.85,2-1.25,3a1.39,1.39,0,0,0,.69,1.75,1.42,1.42,0,0,0,1.65-.32l5-4.74ZM23.25,20.8c.44-1.12.89-2.16,1.37-3.31a.79.79,0,0,0-.35-1c-.93-.53-1.86-1.05-2.78-1.61h0l5-4.7c-.44,1.11-.91,2.21-1.38,3.31a.79.79,0,0,0,.36,1l2.76,1.6h0Zm-13,15.94A9.94,9.94,0,0,0,20.2,27a10.81,10.81,0,0,0,4.65,1,11,11,0,0,0,11-10.81c1.46-1.92,2.84-3.52,3.6-4.36a70.52,70.52,0,0,1,4.93,6.19c2.33,3.35,3.56,6,3.56,7.72A8.49,8.49,0,0,1,31.2,28.91a.72.72,0,0,0-.87-.52.71.71,0,0,0-.52.87,9.92,9.92,0,0,0,19.54-2.44c0-2-1.28-4.9-3.81-8.54a71.52,71.52,0,0,0-5.13-6.43,1.32,1.32,0,0,0-1-.44,1.3,1.3,0,0,0-1,.44c-.61.67-1.67,1.9-2.88,3.41a25.6,25.6,0,0,0-4-7.63A80.35,80.35,0,0,0,25.89.46a1.42,1.42,0,0,0-1-.46,1.39,1.39,0,0,0-1,.46,80,80,0,0,0-5.71,7.17c-2.81,4-4.24,7.23-4.24,9.47a11,11,0,0,0,4.85,9.1,4.59,4.59,0,0,1,0,.62,8.49,8.49,0,0,1-17,0c0-1.71,1.23-4.37,3.56-7.72a68.67,68.67,0,0,1,4.93-6.19c.32.36.8.91,1.38,1.59a.72.72,0,0,0,1,.09.71.71,0,0,0,.08-1c-.63-.76-1.16-1.36-1.49-1.73a1.32,1.32,0,0,0-2,0,73.79,73.79,0,0,0-5.12,6.43C1.64,21.92.35,24.79.35,26.82a9.93,9.93,0,0,0,9.93,9.92Zm5-19.64c0-3.66,4.92-10.47,9.54-15.64,4.62,5.17,9.55,12,9.55,15.64a9.55,9.55,0,0,1-19.09,0ZM42.2,20.92a1.28,1.28,0,0,0-.14-1.2A1.34,1.34,0,0,0,40,19.56l-4.5,4.26A1.34,1.34,0,0,0,35.71,26c.68.41,1.36.8,2,1.18-.36.92-.74,1.74-1.09,2.65a1.31,1.31,0,0,0,.66,1.66,1.34,1.34,0,0,0,1.56-.29c1.5-1.42,3-2.85,4.5-4.26a1.35,1.35,0,0,0-.27-2.18l-2-1.16C41.47,22.7,41.85,21.82,42.2,20.92Zm.12,5c-1.38,1.32-2.76,2.61-4.14,3.92l1.11-2.65a.78.78,0,0,0-.35-1c-.8-.46-1.6-.91-2.4-1.39l4.14-3.92c-.36.9-.74,1.77-1.11,2.65a.78.78,0,0,0,.35,1l2.4,1.39Z"/></g></g></svg>