<svg id="Layer_1" data-name="Layer 1" xmlns="http://www.w3.org/2000/svg" viewBox="0 0 45 51"><defs><style>.cls-1{fill:#069dbe;}</style></defs><g id="Styleguide"><g id="faq_2" data-name="faq/2"><path id="Shape" class="cls-1" d="M12.87,7.05a.76.76,0,0,0,1,.28.75.75,0,0,0,.27-1l-1.79-3.1a.75.75,0,0,0-1-.27.74.74,0,0,0-.27,1ZM4.69,21.17H1.1a.75.75,0,0,0,0,1.5H4.69a.75.75,0,1,0,0-1.5ZM22.35,5.07a.75.75,0,0,0,.75-.75V.75a.75.75,0,0,0-1.5,0V4.32A.76.76,0,0,0,22.35,5.07Zm8.46,2.26a.75.75,0,0,0,1-.28L33.63,4a.75.75,0,0,0-.28-1,.74.74,0,0,0-1,.27l-1.79,3.1A.74.74,0,0,0,30.81,7.33ZM43.6,21.17H40a.75.75,0,0,0,0,1.5H43.6a.75.75,0,1,0,0-1.5ZM41.41,11a.75.75,0,0,0-1-.27l-3.1,1.78a.75.75,0,1,0,.74,1.3L41.13,12a.75.75,0,0,0,.28-1ZM22.35,7.84h0a14.05,14.05,0,0,0-5.26,1,.74.74,0,0,0-.42,1,.75.75,0,0,0,1,.42,12.6,12.6,0,0,1,4.71-.9h0a12.59,12.59,0,0,1,7.34,22.88A8.71,8.71,0,0,0,26,38.56H23.1V31.89a1.57,1.57,0,0,0,.26-.19l4.3-4.29a7.74,7.74,0,0,0,0-11l-4.3-4.29a1.43,1.43,0,0,0-2,0L17,16.44a7.74,7.74,0,0,0,0,11l4.31,4.29a1.5,1.5,0,0,0,.25.19v6.67H18.69a8.56,8.56,0,0,0-3.62-6.31,12.58,12.58,0,0,1,.16-20.74.74.74,0,0,0,.19-1,.75.75,0,0,0-1-.2,14.07,14.07,0,0,0-.17,23.2,7.05,7.05,0,0,1,3,5.24,2,2,0,0,0-1.26,1.88v1.29a2,2,0,0,0,.46,1.28,2,2,0,0,0-.46,1.29v1.28a2,2,0,0,0,2,2h.74V49.4A1.61,1.61,0,0,0,20.32,51h4.06A1.61,1.61,0,0,0,26,49.4V47.76h.75a2,2,0,0,0,2-2V44.45a2.07,2.07,0,0,0-.46-1.29,2.06,2.06,0,0,0,.46-1.28V40.59a2,2,0,0,0-1.27-1.87,7.27,7.27,0,0,1,3-5.3A14.08,14.08,0,0,0,22.35,7.84ZM18.1,26.35a6.25,6.25,0,0,1,0-8.86l4.25-4.23,4.25,4.23a6.25,6.25,0,0,1,0,8.86l-3.5,3.49V26.75L24.83,25a.74.74,0,0,0,0-1.06.75.75,0,0,0-1.06,0l-.67.67v-.89L24.83,22a.73.73,0,0,0,0-1.05.75.75,0,0,0-1.06,0l-.67.67V19.92a.75.75,0,0,0-1.5,0v2.72L20.93,22A.75.75,0,1,0,19.87,23l1.73,1.72v.89L20.93,25A.75.75,0,1,0,19.87,26l1.73,1.72v2.09Zm6.39,23a.11.11,0,0,1-.11.11H20.32a.11.11,0,0,1-.11-.11V47.76h4.28Zm2.79-7.52a.54.54,0,0,1-.54.53H25.35a.75.75,0,1,0,0,1.5h1.39a.54.54,0,0,1,.54.53v1.29a.54.54,0,0,1-.54.54H18a.54.54,0,0,1-.54-.54V44.44a.54.54,0,0,1,.54-.53h4.38a.75.75,0,0,0,0-1.5H18a.54.54,0,0,1-.54-.53V40.59a.54.54,0,0,1,.54-.53h8.77a.54.54,0,0,1,.54.53v1.29ZM7.43,12.47,4.32,10.69A.75.75,0,1,0,3.57,12l3.11,1.79a.75.75,0,0,0,.75-1.3Z"/></g></g></svg>