<svg xmlns="http://www.w3.org/2000/svg" width="21.667" height="16.684" viewBox="0 0 21.667 16.684">
  <path id="z_commerce_barcode_outline" data-name="z_commerce/barcode/outline" d="M16.667,15.858a.833.833,0,0,1,.809-.841h.016L19.326,15A.677.677,0,0,0,20,14.346V2.341a.677.677,0,0,0-.658-.674H19.33l-1.823.017a.833.833,0,0,1-.841-.809V.859a.832.832,0,0,1,.809-.841h.016L19.322,0h.012a2.345,2.345,0,0,1,2.333,2.3V14.333a2.343,2.343,0,0,1-2.291,2.333h-.039l-1.83.017H17.5A.833.833,0,0,1,16.667,15.858ZM0,14.387V2.354A2.269,2.269,0,0,1,2.211.017L4.159,0A.834.834,0,0,1,4.19,1.667H4.174L2.25,1.684a.6.6,0,0,0-.583.653V14.348a.608.608,0,0,0,.568.67h.013L4.159,15A.832.832,0,0,1,5,15.809v.016a.834.834,0,0,1-.81.841H4.174l-1.924.017A2.264,2.264,0,0,1,0,14.387ZM13.333,13.35V3.334A.833.833,0,0,1,15,3.317V13.333a.833.833,0,0,1-1.667.016Zm-6.666,0V3.334a.833.833,0,0,1,1.667-.016V13.333a.833.833,0,0,1-1.666.016ZM10,12.516V4.167a.833.833,0,0,1,1.667-.017V12.5A.833.833,0,0,1,10,12.516Zm6.667-.833V5a.833.833,0,0,1,1.666-.017v6.683a.833.833,0,0,1-1.666.016Zm-13.334,0V5A.833.833,0,0,1,5,4.983v6.683a.833.833,0,0,1-1.667.016Z" transform="translate(0 0)" fill="#fff"/>
</svg>
