<svg xmlns="http://www.w3.org/2000/svg" width="15.36" height="16.64" viewBox="0 0 15.36 16.64">
  <path id="_share-social_outline" data-name=" share-social/outline" d="M10.24,14.08a2.554,2.554,0,0,1,.086-.657l-5.92-3.33a2.56,2.56,0,1,1,0-3.545l5.92-3.331a2.566,2.566,0,1,1,.629,1.115l-5.92,3.33a2.567,2.567,0,0,1,0,1.315l5.92,3.33a2.559,2.559,0,1,1-.714,1.772Zm1.28,0a1.281,1.281,0,1,0,.166-.629v0h0A1.272,1.272,0,0,0,11.52,14.08ZM1.28,8.32A1.28,1.28,0,1,0,2.56,7.04,1.282,1.282,0,0,0,1.28,8.32ZM11.52,2.56A1.28,1.28,0,1,0,12.8,1.28,1.282,1.282,0,0,0,11.52,2.56Z"/>
</svg>
